<?xml version="1.0" encoding="UTF-8"?>
<svg id="Layer_1" xmlns="http://www.w3.org/2000/svg" version="1.1" viewBox="0 0 768 275.56">
  <!-- Generator: Adobe Illustrator 29.7.1, SVG Export Plug-In . SVG Version: 2.1.1 Build 8)  -->
  <path d="M638.73,257.89l-1.52,3.55h-12.79l-.54,1.94h9.9c.53,0,.98.07,1.35.21.37.14.66.32.86.56s.33.49.4.78c.06.29.03.57-.03.84l-1.68,7.43c-.07.31-.27.63-.52.92-.26.29-.58.55-.94.76-.36.21-.75.38-1.16.51-.41.13-.8.19-1.16.19h-17.26l1.52-3.52h13.07l.57-2.03h-10.34c-.46,0-.9-.07-1.21-.17-.31-.11-.56-.27-.73-.46-.17-.19-.28-.4-.32-.62-.04-.22-.02-.44.03-.65l1.74-7.75c.04-.19.19-.43.37-.71.17-.28.42-.56.73-.82.31-.27.69-.49,1.13-.67.44-.17.96-.27,1.56-.27h16.98Z" fill="#ed1c24"/>
  <path d="M652.81,261.83h-4.99l-2.4,9.78h5l2.4-9.78ZM661.65,260.49l-3.39,12.75c-.08.32-.24.61-.48.89-.23.28-.51.52-.84.73-.33.21-.7.38-1.11.51-.41.13-.83.19-1.25.19h-15.58c-.57,0-1.03-.07-1.37-.22-.34-.15-.59-.34-.76-.57-.17-.23-.27-.49-.29-.78-.02-.29.01-.58.09-.87l3.36-12.57c.06-.23.18-.5.33-.81.16-.31.39-.6.68-.87.3-.28.66-.51,1.1-.7.43-.19.96-.29,1.57-.29h15.8c.53,0,.95.1,1.27.29.32.19.54.42.68.68.14.26.22.55.24.86.02.31,0,.56-.06.78Z" fill="#ed1c24"/>
  <path d="M683.49,257.89l-1.24,4.7h-10.69l-2.25,8.31h10.69l-1.24,4.66h-15.39c-1.02,0-1.75-.21-2.19-.62-.44-.41-.57-.98-.38-1.7l3.3-12.41c.09-.32.22-.65.41-1,.19-.35.45-.67.78-.95.33-.29.73-.52,1.19-.71.47-.19,1.03-.29,1.68-.29h15.33Z" fill="#ed1c24"/>
  <polygon points="690.45 269.95 688.96 275.56 682.07 275.56 683.57 269.95 690.45 269.95" fill="#ed1c24"/>
  <path d="M725.63,266.97h-4.36l-1.72,5.5h4.5l1.57-5.5ZM733.88,261.22l-3.84,14.34h-15.9c-.73,0-1.33-.19-1.76-.57-.43-.38-.53-1.06-.27-2.03l1.59-5.93c.07-.27.2-.56.41-.86.21-.3.48-.57.79-.79.31-.23.69-.43,1.09-.59.41-.15.85-.24,1.32-.24h9.46l.54-2h-12l1.24-4.66h14.83c1.14,0,1.91.32,2.3.95.39.63.46,1.43.21,2.38Z" fill="#ed1c24"/>
  <path d="M756.23,257.89l-1.24,4.7h-10.03c-.17,0-.36.05-.57.16-.21.11-.42.24-.62.4-.2.16-.38.33-.54.52-.16.19-.26.36-.3.51l-3.08,11.39h-6.19l4.73-17.67h6.19c-.66,2.42-.34,1.07,1.38.24.33-.16.65-.24.97-.24h9.3Z" fill="#ed1c24"/>
  <polygon points="768 251.13 761.46 275.56 754.53 275.56 761.06 251.13 768 251.13" fill="#ed1c24"/>
  <polygon points="107.95 0 137.87 0 73.92 164.35 44.01 164.35 107.95 0" fill="#2e3192"/>
  <polygon points="44.01 164.35 73.92 164.35 29.92 275.56 0 275.56 44.01 164.35" fill="#ed1c24"/>
  <polygon points="264.08 164.35 294.03 164.35 249.55 275.56 219.63 275.56 264.08 164.35" fill="#ed1c24"/>
  <polygon points="307.28 175.16 337.19 175.16 295.82 275.56 265.91 275.56 307.28 175.16" fill="#ed1c24"/>
  <path d="M456.91,164.35h31.87l23.52-63.67,14.84-12.12s9.01-3.02,3.7,10.21l-26.89,65.58h53.49c.86-2.07,11.41-20.98-2.84-12.77,0,0-9.86,6.82-11.86,1.21l24.28-60.44s11.09-28.95-7.12-28.18c-7.12.09-10.12.51-13.5.92-7.9.97-11.79,3.08-21.55,10.58,0,0-5.35.91-2.12-4.41l3.6-7.28h-28.83l-40.59,100.37Z" fill="#2e3192" fill-rule="evenodd"/>
  <path d="M186.01,164.35h31.54l21.76-56.82s5.39-18.9,37.13-17.34c0,0,1.37-2.85,5.02-10.3l6.25-14.54s.68-3.25-1.95-3.25h-14.4s-12.33,4.66-17.6,11.84c0,0-1.61.05-.98-1.37l6.13-10.47h-31.34l-41.55,102.26Z" fill="#2e3192" fill-rule="evenodd"/>
  <path d="M274.37,136.59h29.37l-4.48,10.73h18.44l10.25-25.4h-46.77l19.79-49.94c.48-1.21,2.96-8.01,6.7-8.01h66.39s9.01-.23,4.12,10.41l-6.23,14.09h-27.94l3.12-9.2h-18.21l-11.5,26.94h39.49s11.22.19,3.17,15.67l-17.87,42.48h-78.12l10.29-27.76Z" fill="#2e3192" fill-rule="evenodd"/>
  <path d="M173.83,223.82h9.82s2.2.06,2.2,2.2-13.03,31.54-13.11,31.8c-.08.26-1.18,2.2-3.1,2.2h-10.34c-.23,0-2.15-.29-2.15-2.2s13.11-31.8,13.11-31.8c0,0,1.29-2.34,3.56-2.2M129.2,275.26h61.11s7.23,1.08,9.19-5.75l33.77-83.65s3.91-9.92-4.53-9.92h-65.27l-9.32,19.61h46.17l-6.04,13.9h-35.08s-11.29-1.52-17.53,15.08c-6.25,16.6-16.35,44.57-16.35,44.57,0,0-2.99,5.88,3.88,6.18Z" fill="#ed1c24" fill-rule="evenodd"/>
  <path d="M146.1,109.3h10.25s2.3.06,2.3,2.3-13.6,32.92-13.69,33.19c-.08.27-1.24,2.3-3.23,2.3h-10.79c-.23,0-2.24-.31-2.24-2.3s13.69-33.19,13.69-33.19c0,0,1.35-2.44,3.72-2.3M110.47,164.33l50.41-.05s7.54,1.12,9.59-6.01l35.24-87.31s4.08-10.35-4.73-10.35h-70.41l-6.5,15.54,48.48-.1-4.79,14.88h-35.04s-14.54-.94-22.34,20.38c-6.55,17.89-6.59,18.18-20.27,53.03h20.35Z" fill="#2e3192" fill-rule="evenodd"/>
  <path d="M367.66,223.82h9.82s2.2.06,2.2,2.2-13.03,31.54-13.11,31.8c-.08.26-1.18,2.2-3.1,2.2h-10.34c-.23,0-2.14-.29-2.14-2.2s13.11-31.8,13.11-31.8c0,0,1.29-2.34,3.56-2.2M323.04,275.26h61.11s7.23,1.08,9.19-5.75l33.77-83.65s3.91-9.92-4.53-9.92h-65.27l-9.32,19.61h46.17l-6.04,13.9h-35.08s-11.29-1.52-17.53,15.08c-6.25,16.6-16.35,44.57-16.35,44.57,0,0-2.99,5.88,3.88,6.18Z" fill="#ed1c24" fill-rule="evenodd"/>
  <path d="M561.5,223.82h9.82s2.2.06,2.2,2.2-13.03,31.54-13.11,31.8c-.08.26-1.18,2.2-3.1,2.2h-10.34c-.23,0-2.15-.29-2.15-2.2s13.11-31.8,13.11-31.8c0,0,1.29-2.34,3.56-2.2M516.88,275.26h61.11s7.23,1.08,9.19-5.75l33.77-83.65s3.91-9.92-4.53-9.92h-65.27l-9.32,19.61h46.17l-6.04,13.9h-35.08s-11.29-1.52-17.53,15.08c-6.25,16.6-16.35,44.57-16.35,44.57,0,0-2.99,5.88,3.88,6.18Z" fill="#ed1c24" fill-rule="evenodd"/>
  <path d="M410.28,275.56l41.74-99.44,22.56-2.01s3.04.66,3.41,8.25c0,0,1.52,5.59,7.21-1.23l16.67-7.11c1.79-.76,7.61-4.27,16.91,5.22,0,0,6.26,4.74.38,17.83-5.88,13.09-31.67,78.5-31.67,78.5h-27.6l28.64-72.34s4.36-12.8-4.17-11.29c0,0-11,.09-15.17,9.2l-30.25,74.43h-28.65Z" fill="#ed1c24" fill-rule="evenodd"/>
  <path d="M76.99,175.94l-7.02,15.78h9.1l-26.08,68.47s-5.88,15.38,5.79,15.38h34.33l5.31-12.34s1.23-1.75-4.13-1.71h-8.3s-5.41.71-1.9-7.35c3.51-8.06,22.04-62.45,22.04-62.45h19.79l6.3-15.78h-17.51l5.28-11.59h-30.06l-4.95,11.59h-8Z" fill="#ed1c24" fill-rule="evenodd"/>
  <path d="M363.64,156.73l38.2-92.56h66.09s11.82,0,6.93,12.9l-17.6,42.85s-1.62,5.17-7.02,5.17h-41.19l-9.11,22.41h14.14l4.18-9.2h28.31s4.05,1.09,1.48,5.57l-10.38,20.49h-69.2c-1.44-.08-6.67-.85-4.82-7.62M429.2,80.02h10.68s2.2.06,2.2,2.22-8.88,23.43-8.96,23.68c-.08.26-1.18,2.22-3.1,2.22h-12.06c-.22,0-2.15-.3-2.15-2.22s9.82-23.68,9.82-23.68c0,0,1.29-2.36,3.56-2.22Z" fill="#2e3192" fill-rule="evenodd"/>
</svg>